<svg xmlns="http://www.w3.org/2000/svg" width="150" height="150" viewBox="0 0 150 150"><defs>
    <linearGradient id="bg" x1="0.28" y1="0" x2="0.72" y2="1">
      <stop offset="0" stop-color="#f9b866"/><stop offset="0.34" stop-color="#f3993f"/>
      <stop offset="0.66" stop-color="#e87d2b"/><stop offset="1" stop-color="#d1641f"/>
    </linearGradient>
    <linearGradient id="gloss" x1="0" y1="0" x2="0" y2="1">
      <stop offset="0" stop-color="#ffffff" stop-opacity="0.30"/>
      <stop offset="0.28" stop-color="#ffffff" stop-opacity="0"/>
      <stop offset="0.72" stop-color="#963700" stop-opacity="0"/>
      <stop offset="1" stop-color="#963700" stop-opacity="0.32"/>
    </linearGradient></defs><rect x="0" y="0" width="150" height="150" rx="34" fill="url(#bg)"/><rect x="0" y="0" width="150" height="150" rx="34" fill="url(#gloss)"/>
  <g transform="rotate(-11 66 78)"><rect x="30" y="44" width="62" height="62" rx="8" fill="#fff" opacity="0.32"/></g>
  <g transform="rotate(9 92 66)"><rect x="62" y="34" width="62" height="62" rx="8" fill="#fff" opacity="0.55"/></g>
  <g transform="rotate(-3 78 92)">
    <rect x="46" y="57" width="68" height="68" rx="9" fill="#fff"/>
    <circle cx="66" cy="80" r="8" fill="#ffce93"/>
    <path d="M51 114l17-17 10 10 12-12 15 15v5a3 3 0 0 1-3 3H54a3 3 0 0 1-3-3z" fill="#e8862f"/>
  </g></svg>